<svg width="48" height="60" viewBox="0 0 48 60" fill="none" xmlns="http://www.w3.org/2000/svg">
<mask id="path-1-inside-1_88_1674" fill="white">
<path fill-rule="evenodd" clip-rule="evenodd" d="M18.8508 0.460606C17.4585 1.00462 17.187 1.87397 17.824 3.75134C18.5666 5.93938 20.2555 7.11007 22.6696 7.11007C25.893 7.11007 26.2828 9.13278 23.5977 11.9235C22.2465 13.3284 18.1923 16.4436 17.7157 16.4436C17.5928 16.4436 17.3634 15.6591 17.2058 14.7C16.6154 11.1075 13.509 9.12078 8.93715 9.41056C6.72503 9.55101 6.65694 9.59723 6.2603 11.2377C5.20062 15.6191 7.36613 19.4721 11.4627 20.4934C13.243 20.9375 13.6813 21.2161 13.4446 21.7535C12.0696 24.8713 11.816 26.238 11.9983 29.555C12.1486 32.3017 12.4781 33.6519 13.4459 35.4911C15.0197 38.4822 18.1124 41.4356 20.7933 42.5081L22.856 43.333L22.8574 49.8642L22.8592 56.3955L20.2317 55.2199C17.936 54.1928 16.9988 54.0417 12.8062 54.0221C8.52361 54.0021 7.72622 54.1283 5.38066 55.1977L2.75316 56.395V42.4308V28.4665L4.23827 27.6856C5.05485 27.2558 6.5459 26.5949 7.5512 26.2171C9.52708 25.474 10.1124 23.9264 8.52955 23.63C7.34192 23.4077 4.08702 24.6891 1.86804 26.2522L0 27.5687L0.12018 43.6672C0.255896 61.9254 0.0324383 61.0471 3.94536 58.7013C7.04763 56.8422 11.0254 55.895 14.2634 56.2448C16.8132 56.5199 21.9906 58.548 22.6029 59.5115C23.1092 60.3084 24.5934 60.0729 26.4102 58.9062C29.194 57.1191 31.9664 56.3413 35.654 56.3133C38.4652 56.2919 39.5934 56.5115 41.9303 57.5346C43.4977 58.2209 45.0139 59.0564 45.2995 59.3911C45.5851 59.7262 46.308 60 46.9052 60H47.9918V43.7152C47.9918 25.4029 48.3547 27.202 44.2398 25.1011L42.0871 24.002L41.955 20.1117L41.8229 16.2214L39.0579 16.2591C36.8366 16.2898 35.7207 16.5938 33.3816 17.8063C30.5937 19.2516 26.0502 23.0908 24.5842 25.2393L23.8901 26.2571L21.7073 25.1282C19.2721 23.8686 18.0461 23.706 17.6956 24.5953C17.3465 25.4789 17.8112 25.9384 20.4602 27.3274L22.8592 28.5852V34.5146C22.8592 37.776 22.6888 40.4441 22.4804 40.4441C22.2725 40.4441 21.1927 39.8534 20.0814 39.1311C15.8162 36.36 13.5643 31.0114 14.6066 26.1278C15.361 22.5926 17.2766 19.9628 21.1228 17.1823C22.9575 15.856 24.9293 14.276 25.5046 13.6715L26.5501 12.572L28.3487 13.4373C32.5572 15.4627 35.7253 14.6689 38.2815 10.9488C40.4904 7.73408 40.3163 7.00207 36.9518 5.36693C35.4036 4.61447 33.6494 3.9989 33.053 3.9989C31.6177 3.9989 29.1849 5.01047 28.3962 5.93538C27.6308 6.83318 26.5149 6.16249 26.5149 4.80424C26.5149 3.73533 25.7801 2.3122 24.5504 0.998838C23.5442 -0.0754054 20.8701 -0.327854 18.8508 0.460606ZM23.0905 3.11266C23.9646 4.05267 23.6617 4.8878 22.4461 4.8878C21.508 4.8878 19.9105 3.35088 20.2665 2.79087C20.7093 2.09397 22.3127 2.27664 23.0905 3.11266ZM35.6769 7.34385C36.4181 7.71675 37.0249 8.17098 37.0249 8.35365C37.0249 8.53587 36.3929 9.43101 35.6207 10.3421C34.4911 11.6755 33.9062 11.9991 32.6281 11.9991C30.941 11.9991 28.3427 10.9235 28.3427 10.2252C28.3427 9.99546 28.9811 9.10078 29.7611 8.23676C31.3691 6.45495 33.3231 6.15983 35.6769 7.34385ZM13.2321 12.7986C14.48 13.7044 15.2957 16.0351 14.9004 17.5658C14.6697 18.4601 14.4718 18.5179 12.7116 18.2045C10.0494 17.7312 8.69359 16.1338 8.69359 13.4715V11.4382L10.3967 11.707C11.333 11.8551 12.6093 12.3462 13.2321 12.7986ZM39.3097 32.4266V46.6322L37.3754 47.1389C34.1438 47.9851 31.042 49.754 28.2532 52.3412L25.601 54.8017V41.4405V28.0794L27.4261 25.8335C29.7835 22.9326 33.7312 20.0485 36.7187 19.0445C38.0183 18.6076 39.1328 18.2441 39.1954 18.2361C39.258 18.2281 39.3097 24.614 39.3097 32.4266ZM45.7071 42.4743V56.3413L42.8511 55.2097C39.5688 53.9092 34.1557 53.4119 31.3102 54.1488L29.4851 54.6212L31.2645 53.0972C33.5205 51.1643 36.4948 49.7585 38.9747 49.4522C40.0385 49.3207 41.1663 49.0158 41.4802 48.7744C41.9093 48.4447 42.0514 45.6326 42.0514 37.4724V26.6091L43.8792 27.6082L45.7071 28.6074V42.4743Z"/>
</mask>
<path fill-rule="evenodd" clip-rule="evenodd" d="M18.8508 0.460606C17.4585 1.00462 17.187 1.87397 17.824 3.75134C18.5666 5.93938 20.2555 7.11007 22.6696 7.11007C25.893 7.11007 26.2828 9.13278 23.5977 11.9235C22.2465 13.3284 18.1923 16.4436 17.7157 16.4436C17.5928 16.4436 17.3634 15.6591 17.2058 14.7C16.6154 11.1075 13.509 9.12078 8.93715 9.41056C6.72503 9.55101 6.65694 9.59723 6.2603 11.2377C5.20062 15.6191 7.36613 19.4721 11.4627 20.4934C13.243 20.9375 13.6813 21.2161 13.4446 21.7535C12.0696 24.8713 11.816 26.238 11.9983 29.555C12.1486 32.3017 12.4781 33.6519 13.4459 35.4911C15.0197 38.4822 18.1124 41.4356 20.7933 42.5081L22.856 43.333L22.8574 49.8642L22.8592 56.3955L20.2317 55.2199C17.936 54.1928 16.9988 54.0417 12.8062 54.0221C8.52361 54.0021 7.72622 54.1283 5.38066 55.1977L2.75316 56.395V42.4308V28.4665L4.23827 27.6856C5.05485 27.2558 6.5459 26.5949 7.5512 26.2171C9.52708 25.474 10.1124 23.9264 8.52955 23.63C7.34192 23.4077 4.08702 24.6891 1.86804 26.2522L0 27.5687L0.12018 43.6672C0.255896 61.9254 0.0324383 61.0471 3.94536 58.7013C7.04763 56.8422 11.0254 55.895 14.2634 56.2448C16.8132 56.5199 21.9906 58.548 22.6029 59.5115C23.1092 60.3084 24.5934 60.0729 26.4102 58.9062C29.194 57.1191 31.9664 56.3413 35.654 56.3133C38.4652 56.2919 39.5934 56.5115 41.9303 57.5346C43.4977 58.2209 45.0139 59.0564 45.2995 59.3911C45.5851 59.7262 46.308 60 46.9052 60H47.9918V43.7152C47.9918 25.4029 48.3547 27.202 44.2398 25.1011L42.0871 24.002L41.955 20.1117L41.8229 16.2214L39.0579 16.2591C36.8366 16.2898 35.7207 16.5938 33.3816 17.8063C30.5937 19.2516 26.0502 23.0908 24.5842 25.2393L23.8901 26.2571L21.7073 25.1282C19.2721 23.8686 18.0461 23.706 17.6956 24.5953C17.3465 25.4789 17.8112 25.9384 20.4602 27.3274L22.8592 28.5852V34.5146C22.8592 37.776 22.6888 40.4441 22.4804 40.4441C22.2725 40.4441 21.1927 39.8534 20.0814 39.1311C15.8162 36.36 13.5643 31.0114 14.6066 26.1278C15.361 22.5926 17.2766 19.9628 21.1228 17.1823C22.9575 15.856 24.9293 14.276 25.5046 13.6715L26.5501 12.572L28.3487 13.4373C32.5572 15.4627 35.7253 14.6689 38.2815 10.9488C40.4904 7.73408 40.3163 7.00207 36.9518 5.36693C35.4036 4.61447 33.6494 3.9989 33.053 3.9989C31.6177 3.9989 29.1849 5.01047 28.3962 5.93538C27.6308 6.83318 26.5149 6.16249 26.5149 4.80424C26.5149 3.73533 25.7801 2.3122 24.5504 0.998838C23.5442 -0.0754054 20.8701 -0.327854 18.8508 0.460606ZM23.0905 3.11266C23.9646 4.05267 23.6617 4.8878 22.4461 4.8878C21.508 4.8878 19.9105 3.35088 20.2665 2.79087C20.7093 2.09397 22.3127 2.27664 23.0905 3.11266ZM35.6769 7.34385C36.4181 7.71675 37.0249 8.17098 37.0249 8.35365C37.0249 8.53587 36.3929 9.43101 35.6207 10.3421C34.4911 11.6755 33.9062 11.9991 32.6281 11.9991C30.941 11.9991 28.3427 10.9235 28.3427 10.2252C28.3427 9.99546 28.9811 9.10078 29.7611 8.23676C31.3691 6.45495 33.3231 6.15983 35.6769 7.34385ZM13.2321 12.7986C14.48 13.7044 15.2957 16.0351 14.9004 17.5658C14.6697 18.4601 14.4718 18.5179 12.7116 18.2045C10.0494 17.7312 8.69359 16.1338 8.69359 13.4715V11.4382L10.3967 11.707C11.333 11.8551 12.6093 12.3462 13.2321 12.7986ZM39.3097 32.4266V46.6322L37.3754 47.1389C34.1438 47.9851 31.042 49.754 28.2532 52.3412L25.601 54.8017V41.4405V28.0794L27.4261 25.8335C29.7835 22.9326 33.7312 20.0485 36.7187 19.0445C38.0183 18.6076 39.1328 18.2441 39.1954 18.2361C39.258 18.2281 39.3097 24.614 39.3097 32.4266ZM45.7071 42.4743V56.3413L42.8511 55.2097C39.5688 53.9092 34.1557 53.4119 31.3102 54.1488L29.4851 54.6212L31.2645 53.0972C33.5205 51.1643 36.4948 49.7585 38.9747 49.4522C40.0385 49.3207 41.1663 49.0158 41.4802 48.7744C41.9093 48.4447 42.0514 45.6326 42.0514 37.4724V26.6091L43.8792 27.6082L45.7071 28.6074V42.4743Z" fill="black" stroke="black" stroke-width="2" mask="url(#path-1-inside-1_88_1674)"/>
</svg>
